# xmcd
#
# Track frame offsets:
#	150
#	17137
#	34650
#	53025
#	67762
#	89025
#	107262
#	125007
#	153935
#	169555
#	200455
#	215625
#	235300
#
# Disc length: 3477 seconds
#
# Revision: 1
# Processed by: cddbd v1.5.1PL0 Copyright (c) Steve Scherf et al.
# Submitted via: CDex 1.50Beta5
#
DISCID=a80d930d
DTITLE=さまざまなアーティスト - Brand New Skip Decoration V.A.
DYEAR=1900
DGENRE=Rock
TTITLE0=White Come Come/How I Feel
TTITLE1=Loco-Holidays/Place In The Sun
TTITLE2=Plagues/Stay
TTITLE3=Paint In Watercolour/Guess
TTITLE4=Loco-Holidays/Close To Me
TTITLE5=Brick Flower/Catch Their Breathing
TTITLE6=Love Gloom Cash Love/Sleeping Dancer Sleep On
TTITLE7=Secret Goldfish/Movin' Edit,Kill The Dolphin Mix
TTITLE8=Brick Flower/Jump Up Boy
TTITLE9=Venus Peter/Fall Remix
TTITLE10=Paint In Watercolour/It Will Fall
TTITLE11=Plagues/I Hate Sunday
TTITLE12=White Come Come/Broken Bird
EXTD=
EXTT0=
EXTT1=
EXTT2=
EXTT3=
EXTT4=
EXTT5=
EXTT6=
EXTT7=
EXTT8=
EXTT9=
EXTT10=
EXTT11=
EXTT12=
PLAYORDER=
